G04 #@! TF.GenerationSoftware,KiCad,Pcbnew,(5.0.0)*
G04 #@! TF.CreationDate,2018-10-21T00:31:12-03:00*
G04 #@! TF.ProjectId,picdev8pin,7069636465763870696E2E6B69636164,rev?*
G04 #@! TF.SameCoordinates,Original*
G04 #@! TF.FileFunction,Legend,Top*
G04 #@! TF.FilePolarity,Positive*
%FSLAX46Y46*%
G04 Gerber Fmt 4.6, Leading zero omitted, Abs format (unit mm)*
G04 Created by KiCad (PCBNEW (5.0.0)) date 10/21/18 00:31:12*
%MOMM*%
%LPD*%
G01*
G04 APERTURE LIST*
%ADD10C,0.300000*%
%ADD11C,0.250000*%
%ADD12C,0.120000*%
%ADD13C,0.150000*%
G04 APERTURE END LIST*
D10*
X96207857Y-34698714D02*
X96143571Y-34770142D01*
X95950714Y-34841571D01*
X95822142Y-34841571D01*
X95629285Y-34770142D01*
X95500714Y-34627285D01*
X95436428Y-34484428D01*
X95372142Y-34198714D01*
X95372142Y-33984428D01*
X95436428Y-33698714D01*
X95500714Y-33555857D01*
X95629285Y-33413000D01*
X95822142Y-33341571D01*
X95950714Y-33341571D01*
X96143571Y-33413000D01*
X96207857Y-33484428D01*
X97815000Y-34841571D02*
X97815000Y-33341571D01*
X98136428Y-33341571D01*
X98329285Y-33413000D01*
X98457857Y-33555857D01*
X98522142Y-33698714D01*
X98586428Y-33984428D01*
X98586428Y-34198714D01*
X98522142Y-34484428D01*
X98457857Y-34627285D01*
X98329285Y-34770142D01*
X98136428Y-34841571D01*
X97815000Y-34841571D01*
X100193571Y-34270142D02*
X101222142Y-34270142D01*
X102893571Y-34270142D02*
X103922142Y-34270142D01*
X103407857Y-34841571D02*
X103407857Y-33698714D01*
X105593571Y-34841571D02*
X105593571Y-33341571D01*
X106043571Y-34413000D01*
X106493571Y-33341571D01*
X106493571Y-34841571D01*
D11*
X90487666Y-39243571D02*
X90821000Y-40743571D01*
X91154333Y-39243571D01*
X91487666Y-40743571D02*
X91487666Y-39243571D01*
X91725761Y-39243571D01*
X91868619Y-39315000D01*
X91963857Y-39457857D01*
X92011476Y-39600714D01*
X92059095Y-39886428D01*
X92059095Y-40100714D01*
X92011476Y-40386428D01*
X91963857Y-40529285D01*
X91868619Y-40672142D01*
X91725761Y-40743571D01*
X91487666Y-40743571D01*
X92487666Y-40743571D02*
X92487666Y-39243571D01*
X92725761Y-39243571D01*
X92868619Y-39315000D01*
X92963857Y-39457857D01*
X93011476Y-39600714D01*
X93059095Y-39886428D01*
X93059095Y-40100714D01*
X93011476Y-40386428D01*
X92963857Y-40529285D01*
X92868619Y-40672142D01*
X92725761Y-40743571D01*
X92487666Y-40743571D01*
X91106714Y-41815000D02*
X91011476Y-41743571D01*
X90868619Y-41743571D01*
X90725761Y-41815000D01*
X90630523Y-41957857D01*
X90582904Y-42100714D01*
X90535285Y-42386428D01*
X90535285Y-42600714D01*
X90582904Y-42886428D01*
X90630523Y-43029285D01*
X90725761Y-43172142D01*
X90868619Y-43243571D01*
X90963857Y-43243571D01*
X91106714Y-43172142D01*
X91154333Y-43100714D01*
X91154333Y-42600714D01*
X90963857Y-42600714D01*
X91582904Y-43243571D02*
X91582904Y-41743571D01*
X91963857Y-41743571D01*
X92059095Y-41815000D01*
X92106714Y-41886428D01*
X92154333Y-42029285D01*
X92154333Y-42243571D01*
X92106714Y-42386428D01*
X92059095Y-42457857D01*
X91963857Y-42529285D01*
X91582904Y-42529285D01*
X93059095Y-41743571D02*
X92582904Y-41743571D01*
X92535285Y-42457857D01*
X92582904Y-42386428D01*
X92678142Y-42315000D01*
X92916238Y-42315000D01*
X93011476Y-42386428D01*
X93059095Y-42457857D01*
X93106714Y-42600714D01*
X93106714Y-42957857D01*
X93059095Y-43100714D01*
X93011476Y-43172142D01*
X92916238Y-43243571D01*
X92678142Y-43243571D01*
X92582904Y-43172142D01*
X92535285Y-43100714D01*
X91106714Y-44315000D02*
X91011476Y-44243571D01*
X90868619Y-44243571D01*
X90725761Y-44315000D01*
X90630523Y-44457857D01*
X90582904Y-44600714D01*
X90535285Y-44886428D01*
X90535285Y-45100714D01*
X90582904Y-45386428D01*
X90630523Y-45529285D01*
X90725761Y-45672142D01*
X90868619Y-45743571D01*
X90963857Y-45743571D01*
X91106714Y-45672142D01*
X91154333Y-45600714D01*
X91154333Y-45100714D01*
X90963857Y-45100714D01*
X91582904Y-45743571D02*
X91582904Y-44243571D01*
X91963857Y-44243571D01*
X92059095Y-44315000D01*
X92106714Y-44386428D01*
X92154333Y-44529285D01*
X92154333Y-44743571D01*
X92106714Y-44886428D01*
X92059095Y-44957857D01*
X91963857Y-45029285D01*
X91582904Y-45029285D01*
X93011476Y-44743571D02*
X93011476Y-45743571D01*
X92773380Y-44172142D02*
X92535285Y-45243571D01*
X93154333Y-45243571D01*
X91106714Y-46815000D02*
X91011476Y-46743571D01*
X90868619Y-46743571D01*
X90725761Y-46815000D01*
X90630523Y-46957857D01*
X90582904Y-47100714D01*
X90535285Y-47386428D01*
X90535285Y-47600714D01*
X90582904Y-47886428D01*
X90630523Y-48029285D01*
X90725761Y-48172142D01*
X90868619Y-48243571D01*
X90963857Y-48243571D01*
X91106714Y-48172142D01*
X91154333Y-48100714D01*
X91154333Y-47600714D01*
X90963857Y-47600714D01*
X91582904Y-48243571D02*
X91582904Y-46743571D01*
X91963857Y-46743571D01*
X92059095Y-46815000D01*
X92106714Y-46886428D01*
X92154333Y-47029285D01*
X92154333Y-47243571D01*
X92106714Y-47386428D01*
X92059095Y-47457857D01*
X91963857Y-47529285D01*
X91582904Y-47529285D01*
X92487666Y-46743571D02*
X93106714Y-46743571D01*
X92773380Y-47315000D01*
X92916238Y-47315000D01*
X93011476Y-47386428D01*
X93059095Y-47457857D01*
X93106714Y-47600714D01*
X93106714Y-47957857D01*
X93059095Y-48100714D01*
X93011476Y-48172142D01*
X92916238Y-48243571D01*
X92630523Y-48243571D01*
X92535285Y-48172142D01*
X92487666Y-48100714D01*
X108950285Y-39283571D02*
X109283619Y-40783571D01*
X109616952Y-39283571D01*
X109902666Y-40712142D02*
X110045523Y-40783571D01*
X110283619Y-40783571D01*
X110378857Y-40712142D01*
X110426476Y-40640714D01*
X110474095Y-40497857D01*
X110474095Y-40355000D01*
X110426476Y-40212142D01*
X110378857Y-40140714D01*
X110283619Y-40069285D01*
X110093142Y-39997857D01*
X109997904Y-39926428D01*
X109950285Y-39855000D01*
X109902666Y-39712142D01*
X109902666Y-39569285D01*
X109950285Y-39426428D01*
X109997904Y-39355000D01*
X110093142Y-39283571D01*
X110331238Y-39283571D01*
X110474095Y-39355000D01*
X110855047Y-40712142D02*
X110997904Y-40783571D01*
X111236000Y-40783571D01*
X111331238Y-40712142D01*
X111378857Y-40640714D01*
X111426476Y-40497857D01*
X111426476Y-40355000D01*
X111378857Y-40212142D01*
X111331238Y-40140714D01*
X111236000Y-40069285D01*
X111045523Y-39997857D01*
X110950285Y-39926428D01*
X110902666Y-39855000D01*
X110855047Y-39712142D01*
X110855047Y-39569285D01*
X110902666Y-39426428D01*
X110950285Y-39355000D01*
X111045523Y-39283571D01*
X111283619Y-39283571D01*
X111426476Y-39355000D01*
X109521714Y-41855000D02*
X109426476Y-41783571D01*
X109283619Y-41783571D01*
X109140761Y-41855000D01*
X109045523Y-41997857D01*
X108997904Y-42140714D01*
X108950285Y-42426428D01*
X108950285Y-42640714D01*
X108997904Y-42926428D01*
X109045523Y-43069285D01*
X109140761Y-43212142D01*
X109283619Y-43283571D01*
X109378857Y-43283571D01*
X109521714Y-43212142D01*
X109569333Y-43140714D01*
X109569333Y-42640714D01*
X109378857Y-42640714D01*
X109997904Y-43283571D02*
X109997904Y-41783571D01*
X110378857Y-41783571D01*
X110474095Y-41855000D01*
X110521714Y-41926428D01*
X110569333Y-42069285D01*
X110569333Y-42283571D01*
X110521714Y-42426428D01*
X110474095Y-42497857D01*
X110378857Y-42569285D01*
X109997904Y-42569285D01*
X111188380Y-41783571D02*
X111283619Y-41783571D01*
X111378857Y-41855000D01*
X111426476Y-41926428D01*
X111474095Y-42069285D01*
X111521714Y-42355000D01*
X111521714Y-42712142D01*
X111474095Y-42997857D01*
X111426476Y-43140714D01*
X111378857Y-43212142D01*
X111283619Y-43283571D01*
X111188380Y-43283571D01*
X111093142Y-43212142D01*
X111045523Y-43140714D01*
X110997904Y-42997857D01*
X110950285Y-42712142D01*
X110950285Y-42355000D01*
X110997904Y-42069285D01*
X111045523Y-41926428D01*
X111093142Y-41855000D01*
X111188380Y-41783571D01*
X109521714Y-44355000D02*
X109426476Y-44283571D01*
X109283619Y-44283571D01*
X109140761Y-44355000D01*
X109045523Y-44497857D01*
X108997904Y-44640714D01*
X108950285Y-44926428D01*
X108950285Y-45140714D01*
X108997904Y-45426428D01*
X109045523Y-45569285D01*
X109140761Y-45712142D01*
X109283619Y-45783571D01*
X109378857Y-45783571D01*
X109521714Y-45712142D01*
X109569333Y-45640714D01*
X109569333Y-45140714D01*
X109378857Y-45140714D01*
X109997904Y-45783571D02*
X109997904Y-44283571D01*
X110378857Y-44283571D01*
X110474095Y-44355000D01*
X110521714Y-44426428D01*
X110569333Y-44569285D01*
X110569333Y-44783571D01*
X110521714Y-44926428D01*
X110474095Y-44997857D01*
X110378857Y-45069285D01*
X109997904Y-45069285D01*
X111521714Y-45783571D02*
X110950285Y-45783571D01*
X111236000Y-45783571D02*
X111236000Y-44283571D01*
X111140761Y-44497857D01*
X111045523Y-44640714D01*
X110950285Y-44712142D01*
X109521714Y-46855000D02*
X109426476Y-46783571D01*
X109283619Y-46783571D01*
X109140761Y-46855000D01*
X109045523Y-46997857D01*
X108997904Y-47140714D01*
X108950285Y-47426428D01*
X108950285Y-47640714D01*
X108997904Y-47926428D01*
X109045523Y-48069285D01*
X109140761Y-48212142D01*
X109283619Y-48283571D01*
X109378857Y-48283571D01*
X109521714Y-48212142D01*
X109569333Y-48140714D01*
X109569333Y-47640714D01*
X109378857Y-47640714D01*
X109997904Y-48283571D02*
X109997904Y-46783571D01*
X110378857Y-46783571D01*
X110474095Y-46855000D01*
X110521714Y-46926428D01*
X110569333Y-47069285D01*
X110569333Y-47283571D01*
X110521714Y-47426428D01*
X110474095Y-47497857D01*
X110378857Y-47569285D01*
X109997904Y-47569285D01*
X110950285Y-46926428D02*
X110997904Y-46855000D01*
X111093142Y-46783571D01*
X111331238Y-46783571D01*
X111426476Y-46855000D01*
X111474095Y-46926428D01*
X111521714Y-47069285D01*
X111521714Y-47212142D01*
X111474095Y-47426428D01*
X110902666Y-48283571D01*
X111521714Y-48283571D01*
X108950285Y-49283571D02*
X109283619Y-50783571D01*
X109616952Y-49283571D01*
X109902666Y-50712142D02*
X110045523Y-50783571D01*
X110283619Y-50783571D01*
X110378857Y-50712142D01*
X110426476Y-50640714D01*
X110474095Y-50497857D01*
X110474095Y-50355000D01*
X110426476Y-50212142D01*
X110378857Y-50140714D01*
X110283619Y-50069285D01*
X110093142Y-49997857D01*
X109997904Y-49926428D01*
X109950285Y-49855000D01*
X109902666Y-49712142D01*
X109902666Y-49569285D01*
X109950285Y-49426428D01*
X109997904Y-49355000D01*
X110093142Y-49283571D01*
X110331238Y-49283571D01*
X110474095Y-49355000D01*
X110855047Y-50712142D02*
X110997904Y-50783571D01*
X111236000Y-50783571D01*
X111331238Y-50712142D01*
X111378857Y-50640714D01*
X111426476Y-50497857D01*
X111426476Y-50355000D01*
X111378857Y-50212142D01*
X111331238Y-50140714D01*
X111236000Y-50069285D01*
X111045523Y-49997857D01*
X110950285Y-49926428D01*
X110902666Y-49855000D01*
X110855047Y-49712142D01*
X110855047Y-49569285D01*
X110902666Y-49426428D01*
X110950285Y-49355000D01*
X111045523Y-49283571D01*
X111283619Y-49283571D01*
X111426476Y-49355000D01*
X108902666Y-51783571D02*
X109236000Y-53283571D01*
X109569333Y-51783571D01*
X109902666Y-53283571D02*
X109902666Y-51783571D01*
X110140761Y-51783571D01*
X110283619Y-51855000D01*
X110378857Y-51997857D01*
X110426476Y-52140714D01*
X110474095Y-52426428D01*
X110474095Y-52640714D01*
X110426476Y-52926428D01*
X110378857Y-53069285D01*
X110283619Y-53212142D01*
X110140761Y-53283571D01*
X109902666Y-53283571D01*
X110902666Y-53283571D02*
X110902666Y-51783571D01*
X111140761Y-51783571D01*
X111283619Y-51855000D01*
X111378857Y-51997857D01*
X111426476Y-52140714D01*
X111474095Y-52426428D01*
X111474095Y-52640714D01*
X111426476Y-52926428D01*
X111378857Y-53069285D01*
X111283619Y-53212142D01*
X111140761Y-53283571D01*
X110902666Y-53283571D01*
D12*
G04 #@! TO.C,J1*
X107549001Y-35500000D02*
X107549001Y-36830000D01*
X106219001Y-35500000D02*
X107549001Y-35500000D01*
X104949001Y-35500000D02*
X104949001Y-38160000D01*
X104949001Y-38160000D02*
X94729001Y-38160000D01*
X104949001Y-35500000D02*
X94729001Y-35500000D01*
X94729001Y-35500000D02*
X94729001Y-38160000D01*
D13*
G04 #@! TO.C,U1*
X103490000Y-41773000D02*
X103490000Y-40373000D01*
X98390000Y-41773000D02*
X98390000Y-45923000D01*
X103540000Y-41773000D02*
X103540000Y-45923000D01*
X98390000Y-41773000D02*
X98535000Y-41773000D01*
X98390000Y-45923000D02*
X98535000Y-45923000D01*
X103540000Y-45923000D02*
X103395000Y-45923000D01*
X103540000Y-41773000D02*
X103490000Y-41773000D01*
D12*
G04 #@! TO.C,U2*
X103615000Y-38675000D02*
X101965000Y-38675000D01*
X103615000Y-48955000D02*
X103615000Y-38675000D01*
X98315000Y-48955000D02*
X103615000Y-48955000D01*
X98315000Y-38675000D02*
X98315000Y-48955000D01*
X99965000Y-38675000D02*
X98315000Y-38675000D01*
X101965000Y-38675000D02*
G75*
G02X99965000Y-38675000I-1000000J0D01*
G01*
G04 #@! TO.C,C1*
X104275000Y-37928000D02*
X105275000Y-37928000D01*
X105275000Y-39288000D02*
X104275000Y-39288000D01*
G04 #@! TO.C,J2*
X105985000Y-48955000D02*
X108645000Y-48955000D01*
X105985000Y-41275000D02*
X105985000Y-48955000D01*
X108645000Y-41275000D02*
X108645000Y-48955000D01*
X105985000Y-41275000D02*
X108645000Y-41275000D01*
X105985000Y-40005000D02*
X105985000Y-38675000D01*
X105985000Y-38675000D02*
X107315000Y-38675000D01*
G04 #@! TO.C,J3*
X93285000Y-38675000D02*
X94615000Y-38675000D01*
X93285000Y-40005000D02*
X93285000Y-38675000D01*
X93285000Y-41275000D02*
X95945000Y-41275000D01*
X95945000Y-41275000D02*
X95945000Y-48955000D01*
X93285000Y-41275000D02*
X93285000Y-48955000D01*
X93285000Y-48955000D02*
X95945000Y-48955000D01*
G04 #@! TO.C,J4*
X93285000Y-51495000D02*
X93285000Y-50165000D01*
X94615000Y-51495000D02*
X93285000Y-51495000D01*
X95885000Y-51495000D02*
X95885000Y-48835000D01*
X95885000Y-48835000D02*
X108645000Y-48835000D01*
X95885000Y-51495000D02*
X108645000Y-51495000D01*
X108645000Y-51495000D02*
X108645000Y-48835000D01*
G04 #@! TO.C,J5*
X93285000Y-54035000D02*
X93285000Y-52705000D01*
X94615000Y-54035000D02*
X93285000Y-54035000D01*
X95885000Y-54035000D02*
X95885000Y-51375000D01*
X95885000Y-51375000D02*
X108645000Y-51375000D01*
X95885000Y-54035000D02*
X108645000Y-54035000D01*
X108645000Y-54035000D02*
X108645000Y-51375000D01*
G04 #@! TO.C,R1*
X94479000Y-36357000D02*
X94479000Y-37557000D01*
X92719000Y-37557000D02*
X92719000Y-36357000D01*
G04 #@! TO.C,R2*
X107959000Y-37557000D02*
X107959000Y-36357000D01*
X109719000Y-36357000D02*
X109719000Y-37557000D01*
G04 #@! TO.C,R3*
X111624000Y-36357000D02*
X111624000Y-37557000D01*
X109864000Y-37557000D02*
X109864000Y-36357000D01*
G04 #@! TO.C,J4*
D13*
X91737380Y-50498333D02*
X92451666Y-50498333D01*
X92594523Y-50545952D01*
X92689761Y-50641190D01*
X92737380Y-50784047D01*
X92737380Y-50879285D01*
X92070714Y-49593571D02*
X92737380Y-49593571D01*
X91689761Y-49831666D02*
X92404047Y-50069761D01*
X92404047Y-49450714D01*
G04 #@! TO.C,J5*
X91737380Y-53038333D02*
X92451666Y-53038333D01*
X92594523Y-53085952D01*
X92689761Y-53181190D01*
X92737380Y-53324047D01*
X92737380Y-53419285D01*
X91737380Y-52085952D02*
X91737380Y-52562142D01*
X92213571Y-52609761D01*
X92165952Y-52562142D01*
X92118333Y-52466904D01*
X92118333Y-52228809D01*
X92165952Y-52133571D01*
X92213571Y-52085952D01*
X92308809Y-52038333D01*
X92546904Y-52038333D01*
X92642142Y-52085952D01*
X92689761Y-52133571D01*
X92737380Y-52228809D01*
X92737380Y-52466904D01*
X92689761Y-52562142D01*
X92642142Y-52609761D01*
G04 #@! TO.C,R1*
X92400380Y-37250666D02*
X91924190Y-37584000D01*
X92400380Y-37822095D02*
X91400380Y-37822095D01*
X91400380Y-37441142D01*
X91448000Y-37345904D01*
X91495619Y-37298285D01*
X91590857Y-37250666D01*
X91733714Y-37250666D01*
X91828952Y-37298285D01*
X91876571Y-37345904D01*
X91924190Y-37441142D01*
X91924190Y-37822095D01*
X92400380Y-36298285D02*
X92400380Y-36869714D01*
X92400380Y-36584000D02*
X91400380Y-36584000D01*
X91543238Y-36679238D01*
X91638476Y-36774476D01*
X91686095Y-36869714D01*
G04 #@! TO.C,R2*
X109418380Y-34456666D02*
X108942190Y-34790000D01*
X109418380Y-35028095D02*
X108418380Y-35028095D01*
X108418380Y-34647142D01*
X108466000Y-34551904D01*
X108513619Y-34504285D01*
X108608857Y-34456666D01*
X108751714Y-34456666D01*
X108846952Y-34504285D01*
X108894571Y-34551904D01*
X108942190Y-34647142D01*
X108942190Y-35028095D01*
X108513619Y-34075714D02*
X108466000Y-34028095D01*
X108418380Y-33932857D01*
X108418380Y-33694761D01*
X108466000Y-33599523D01*
X108513619Y-33551904D01*
X108608857Y-33504285D01*
X108704095Y-33504285D01*
X108846952Y-33551904D01*
X109418380Y-34123333D01*
X109418380Y-33504285D01*
G04 #@! TO.C,R3*
X111196380Y-34456666D02*
X110720190Y-34790000D01*
X111196380Y-35028095D02*
X110196380Y-35028095D01*
X110196380Y-34647142D01*
X110244000Y-34551904D01*
X110291619Y-34504285D01*
X110386857Y-34456666D01*
X110529714Y-34456666D01*
X110624952Y-34504285D01*
X110672571Y-34551904D01*
X110720190Y-34647142D01*
X110720190Y-35028095D01*
X110196380Y-34123333D02*
X110196380Y-33504285D01*
X110577333Y-33837619D01*
X110577333Y-33694761D01*
X110624952Y-33599523D01*
X110672571Y-33551904D01*
X110767809Y-33504285D01*
X111005904Y-33504285D01*
X111101142Y-33551904D01*
X111148761Y-33599523D01*
X111196380Y-33694761D01*
X111196380Y-33980476D01*
X111148761Y-34075714D01*
X111101142Y-34123333D01*
G04 #@! TD*
M02*
