G04 #@! TF.GenerationSoftware,KiCad,Pcbnew,(5.0.0)*
G04 #@! TF.CreationDate,2018-10-21T00:31:12-03:00*
G04 #@! TF.ProjectId,picdev8pin,7069636465763870696E2E6B69636164,rev?*
G04 #@! TF.SameCoordinates,Original*
G04 #@! TF.FileFunction,Soldermask,Top*
G04 #@! TF.FilePolarity,Negative*
%FSLAX46Y46*%
G04 Gerber Fmt 4.6, Leading zero omitted, Abs format (unit mm)*
G04 Created by KiCad (PCBNEW (5.0.0)) date 10/21/18 00:31:12*
%MOMM*%
%LPD*%
G01*
G04 APERTURE LIST*
%ADD10O,2.500000X2.500000*%
%ADD11R,2.500000X2.500000*%
%ADD12R,1.000000X1.950000*%
%ADD13O,2.000000X2.000000*%
%ADD14R,2.000000X2.000000*%
%ADD15R,0.900000X1.300000*%
%ADD16R,2.100000X2.100000*%
%ADD17O,2.100000X2.100000*%
%ADD18R,1.700000X1.100000*%
G04 APERTURE END LIST*
D10*
G04 #@! TO.C,J1*
X96059001Y-36830000D03*
X98599001Y-36830000D03*
X101139001Y-36830000D03*
X103679001Y-36830000D03*
D11*
X106219001Y-36830000D03*
G04 #@! TD*
D12*
G04 #@! TO.C,U1*
X102870000Y-46548000D03*
X101600000Y-46548000D03*
X100330000Y-46548000D03*
X99060000Y-46548000D03*
X99060000Y-41148000D03*
X100330000Y-41148000D03*
X101600000Y-41148000D03*
X102870000Y-41148000D03*
G04 #@! TD*
D13*
G04 #@! TO.C,U2*
X104775000Y-40005000D03*
X97155000Y-47625000D03*
X104775000Y-42545000D03*
X97155000Y-45085000D03*
X104775000Y-45085000D03*
X97155000Y-42545000D03*
X104775000Y-47625000D03*
D14*
X97155000Y-40005000D03*
G04 #@! TD*
D15*
G04 #@! TO.C,C1*
X105525000Y-38608000D03*
X104025000Y-38608000D03*
G04 #@! TD*
D16*
G04 #@! TO.C,J2*
X107315000Y-40005000D03*
D17*
X107315000Y-42545000D03*
X107315000Y-45085000D03*
X107315000Y-47625000D03*
G04 #@! TD*
G04 #@! TO.C,J3*
X94615000Y-47625000D03*
X94615000Y-45085000D03*
X94615000Y-42545000D03*
D16*
X94615000Y-40005000D03*
G04 #@! TD*
D17*
G04 #@! TO.C,J4*
X107315000Y-50165000D03*
X104775000Y-50165000D03*
X102235000Y-50165000D03*
X99695000Y-50165000D03*
X97155000Y-50165000D03*
D16*
X94615000Y-50165000D03*
G04 #@! TD*
D17*
G04 #@! TO.C,J5*
X107315000Y-52705000D03*
X104775000Y-52705000D03*
X102235000Y-52705000D03*
X99695000Y-52705000D03*
X97155000Y-52705000D03*
D16*
X94615000Y-52705000D03*
G04 #@! TD*
D18*
G04 #@! TO.C,R1*
X93599000Y-37907000D03*
X93599000Y-36007000D03*
G04 #@! TD*
G04 #@! TO.C,R2*
X108839000Y-36007000D03*
X108839000Y-37907000D03*
G04 #@! TD*
G04 #@! TO.C,R3*
X110744000Y-37907000D03*
X110744000Y-36007000D03*
G04 #@! TD*
M02*
