M48
;DRILL file {KiCad (5.0.0)} date 10/21/18 00:31:17
;FORMAT={-:-/ absolute / inch / decimal}
FMAT,2
INCH,TZ
T1C0.0157
T2C0.0315
T3C0.0394
%
G90
G05
M72
T1
X3.685Y-1.455
X3.9Y-1.5635
X3.9Y-1.74
X3.95Y-1.775
X4.Y-1.675
X4.035Y-1.745
T2
X3.825Y-1.575
X3.825Y-1.675
X3.825Y-1.775
X3.825Y-1.875
X4.125Y-1.575
X4.125Y-1.675
X4.125Y-1.775
X4.125Y-1.875
T3
X3.7819Y-1.45
X3.8819Y-1.45
X3.9819Y-1.45
X4.0819Y-1.45
X4.1819Y-1.45
X3.725Y-1.575
X3.725Y-1.675
X3.725Y-1.775
X3.725Y-1.875
X4.225Y-1.575
X4.225Y-1.675
X4.225Y-1.775
X4.225Y-1.875
X3.725Y-1.975
X3.825Y-1.975
X3.925Y-1.975
X4.025Y-1.975
X4.125Y-1.975
X4.225Y-1.975
X3.725Y-2.075
X3.825Y-2.075
X3.925Y-2.075
X4.025Y-2.075
X4.125Y-2.075
X4.225Y-2.075
T0
M30
